<svg width="64" height="64" viewBox="0 0 64 64" fill="none" xmlns="http://www.w3.org/2000/svg">
<path d="M31.9987 5.33325C17.3054 5.33325 5.33203 17.3066 5.33203 31.9999C5.33203 46.6933 17.3054 58.6666 31.9987 58.6666C46.692 58.6666 58.6654 46.6933 58.6654 31.9999C58.6654 17.3066 46.692 5.33325 31.9987 5.33325ZM36.772 39.9999C37.5454 40.7733 37.5454 42.0533 36.772 42.8266C36.372 43.2266 35.8654 43.4133 35.3587 43.4133C34.852 43.4133 34.3454 43.2266 33.9454 42.8266L24.532 33.4133C23.7587 32.6399 23.7587 31.3599 24.532 30.5866L33.9454 21.1733C34.7187 20.3999 35.9987 20.3999 36.772 21.1733C37.5454 21.9466 37.5454 23.2266 36.772 23.9999L28.772 31.9999L36.772 39.9999Z" fill="white"/>
</svg>
